<svg width="52" height="44" viewBox="0 0 52 44" fill="none" xmlns="http://www.w3.org/2000/svg">
<path d="M45.2593 5.5H39.1001L36.1059 1.22461C35.8422 0.84789 35.4848 0.539001 35.0654 0.325369C34.6461 0.111737 34.1779 -2.73636e-05 33.7023 5.70482e-09H18.2949C17.8193 -2.91549e-05 17.351 0.111735 16.9317 0.325367C16.5124 0.538999 16.155 0.847889 15.8912 1.22461L12.897 5.5H6.74074C4.9536 5.50191 3.24023 6.17856 1.97653 7.38151C0.712831 8.58445 0.0020046 10.2154 0 11.9167V37.5833C0.0020046 39.2846 0.712831 40.9156 1.97653 42.1185C3.24023 43.3214 4.9536 43.9981 6.74074 44H45.2593C47.0464 43.9981 48.7598 43.3214 50.0235 42.1185C51.2872 40.9156 51.998 39.2846 52 37.5833V11.9167C51.998 10.2154 51.2872 8.58445 50.0235 7.38151C48.7598 6.17856 47.0464 5.50191 45.2593 5.5ZM46.2222 37.5833C46.222 37.8264 46.1204 38.0594 45.9399 38.2312C45.7594 38.4031 45.5146 38.4998 45.2593 38.5H6.74074C6.48543 38.4998 6.24064 38.4031 6.0601 38.2312C5.87957 38.0594 5.77803 37.8264 5.77778 37.5833V11.9167C5.77803 11.6736 5.87957 11.4406 6.0601 11.2688C6.24064 11.0969 6.48543 11.0002 6.74074 11H14.443C14.9186 11 15.3869 10.8883 15.8062 10.6746C16.2255 10.461 16.5829 10.1521 16.8467 9.77539L19.8409 5.5H32.1563L35.1505 9.77539C35.4143 10.1521 35.7717 10.461 36.191 10.6746C36.6103 10.8883 37.0786 11 37.5541 11H45.2593C45.5146 11.0002 45.7594 11.0969 45.9399 11.2688C46.1204 11.4406 46.222 11.6736 46.2222 11.9167V37.5833ZM26 12.8333C23.7145 12.8333 21.4804 13.4785 19.5801 14.6872C17.6798 15.8959 16.1987 17.6138 15.3241 19.6238C14.4494 21.6338 14.2206 23.8455 14.6665 25.9793C15.1124 28.1131 16.2129 30.0731 17.829 31.6115C19.4451 33.1499 21.5041 34.1975 23.7456 34.622C25.9872 35.0464 28.3106 34.8286 30.4221 33.996C32.5336 33.1634 34.3384 31.7535 35.6081 29.9446C36.8778 28.1357 37.5556 26.0089 37.5556 23.8333C37.5521 20.917 36.3336 18.121 34.1672 16.0588C32.0009 13.9966 29.0637 12.8366 26 12.8333ZM26 29.3333C24.8573 29.3333 23.7402 29.0108 22.79 28.4064C21.8399 27.8021 21.0993 26.9431 20.662 25.9381C20.2247 24.9331 20.1103 23.8272 20.3332 22.7603C20.5562 21.6934 21.1065 20.7134 21.9145 19.9442C22.7225 19.1751 23.752 18.6512 24.8728 18.439C25.9936 18.2268 27.1553 18.3357 28.2111 18.752C29.2668 19.1683 30.1692 19.8732 30.804 20.7777C31.4389 21.6822 31.7778 22.7455 31.7778 23.8333C31.776 25.2915 31.1667 26.6895 30.0836 27.7206C29.0004 28.7517 27.5318 29.3317 26 29.3333Z" fill="#34575B"/>
</svg>
